<?xml version="1.0" encoding="UTF-8" standalone="no"?>
<svg width="16px" height="11px" viewBox="0 0 16 11" version="1.1" xmlns="http://www.w3.org/2000/svg" xmlns:xlink="http://www.w3.org/1999/xlink">
    <!-- Generator: Sketch 43.2 (39069) - http://www.bohemiancoding.com/sketch -->
    <title>chevron-down</title>
    <desc>Created with Sketch.</desc>
    <defs></defs>
    <g id="Page-1" stroke="none" stroke-width="1" fill="none" fill-rule="evenodd">
        <g id="chevron-down" fill-rule="nonzero" fill="#FFFFFF">
            <path d="M15.8114144,2.72952854 L8.44665012,10.0843672 C8.32092639,10.210091 8.17204301,10.2729529 8,10.2729529 C7.82795699,10.2729529 7.67907361,10.210091 7.55334988,10.0843672 L0.188585608,2.72952854 C0.0628618693,2.6038048 0,2.45326716 0,2.27791563 C0,2.1025641 0.0628618693,1.95202647 0.188585608,1.82630273 L1.83622829,0.188585608 C1.96195203,0.0628618693 2.1108354,0 2.28287841,0 C2.45492142,0 2.6038048,0.0628618693 2.72952854,0.188585608 L8,5.45905707 L13.2704715,0.188585608 C13.3961952,0.0628618693 13.5450786,0 13.7171216,0 C13.8891646,0 14.038048,0.0628618693 14.1637717,0.188585608 L15.8114144,1.82630273 C15.9371381,1.95202647 16,2.1025641 16,2.27791563 C16,2.45326716 15.9371381,2.6038048 15.8114144,2.72952854 Z" id="Shape"></path>
        </g>
    </g>
</svg>