
<svg width="39px" height="34px" viewBox="0 0 39 34" >
    <g id="Custom-Preset" stroke="none" stroke-width="1" fill="none" fill-rule="evenodd" transform="translate(-3.000000, 0.000000)">
        <g id="logo4" transform="translate(3.000000, 0.000000)">
            <g id="meal">
                <path d="M32.0523289,18.4955739 C32.638447,16.9985641 33,15.1207962 33,13.5 C33,6.32444875 26.9598309,0.5 19.5,0.5 C12.0401691,0.5 6,6.32444875 6,13.5 C6,15.8230029 6.71347453,18.3596528 7.91451792,20.3618947 L8.52534872,21.6752272 L8.51892307,21.7992979 C8.4678577,22.7853023 8.78520533,23.6870925 9.48516498,24.5266125 C9.91135762,25.0377809 10.179452,25.4489414 10.2925989,25.7885249 C10.310031,25.8408433 10.3238566,25.892692 10.334084,25.9437866 L22.6700439,25.9437866 L27.2260032,25.9437866 C26.9687155,24.8551855 26.8050296,24.1103356 26.733783,23.7026524 C26.7200312,23.6239626 26.6946878,23.5587795 26.6382342,23.4500598 C26.6008289,23.3792921 26.5767531,23.3333791 26.5561609,23.2911423 C26.3216851,22.8102058 26.379507,22.369641 26.8103725,21.7429412 C26.773725,21.794294 26.7644753,21.8014224 26.7612192,21.8053792 C26.7944993,21.3904141 26.8244724,21.2124279 26.9518927,20.9244453 C26.9678496,20.8890306 26.9678496,20.8890306 26.9850925,20.8534468 C27.2647343,20.2867587 27.7334963,19.7469482 28.1853027,19.7469482 C28.2474246,19.7469482 28.3111791,19.7482663 28.3773958,19.7508087 C28.5250457,19.7564778 28.6563771,19.7661193 28.8819953,19.7858546 C29.3809723,19.8295012 29.5693634,19.8295012 29.6161552,19.8047954 C29.6207309,19.8023794 29.6362232,19.790301 29.6608849,19.7659181 C29.7147675,19.7126447 30.0027251,19.3563099 30.0891142,19.2608263 C30.2659022,19.0654268 30.4461835,18.906401 30.6570391,18.7734587 C30.9391057,18.5956188 31.3896957,18.5134355 32.0523289,18.4955739 Z" id="Oval-8" stroke="#FFFFFF"></path>
                <path d="M11.2647658,25.7519636 C11.8257489,25.7519636 12.393228,25.538314 12.7410196,25.1672346 C12.9858643,24.9059954 13.1545077,24.543147 13.4062503,23.794599 C13.4250899,23.7385801 13.5177873,23.460246 13.5445708,23.380816 C13.8116311,22.5888134 13.9614066,21.7303161 13.9614066,20.8847642 C13.9614066,19.7197993 11.6754088,14.6219635 11.0779309,14.6219635 C10.5087334,14.6219635 8.568125,19.636388 8.568125,20.8847642 C8.568125,23.6089123 9.84450117,25.7519636 11.2647658,25.7519636 Z" id="Oval-5" stroke="#FFFFFF"></path>
                <rect id="Rectangle-6" fill="#FFFFFF" x="10.5" y="19.5" width="1" height="6" rx="0.5"></rect>
                <rect id="Rectangle-5" fill="#FFFFFF" transform="translate(30.500000, 22.500000) rotate(-32.000000) translate(-30.500000, -22.500000) " x="26" y="22" width="9" height="1" rx="0.5"></rect>
                <g id="tomatoe" transform="translate(12.000000, 17.500000)" stroke="#FFFFFF">
                    <path d="M7.83194607,8.47417603 L13.2841283,8.47430871 C14.3843864,8.4996611 14.7990625,8.21206654 14.7990625,7.56875 C14.7990625,3.70856108 11.8053079,0.5875 8.12296875,0.5875 C5.39116476,0.5875 3.07059884,2.35816626 2.06361207,5.08345338 C2.00456939,5.24324518 2.00117288,5.25189421 1.82978272,5.68386286 C1.47580819,6.57601385 1.34399414,7.04061745 1.34399414,7.56875 C1.34399414,8.25478954 1.86988427,8.56042813 3.26220863,8.47417603 L7.83194607,8.47417603 Z" id="Oval-6"></path>
                    <path d="M5.48866393,4.99098095 C5.71916903,5.07678473 6.06745221,4.52832225 5.98861493,4.2804308 C5.95519147,4.17533598 5.65550712,4 5.47590749,4 C5.30027575,4 5,4.22533747 5,4.33673203 C5,4.56136389 5.25815882,4.90517716 5.48866393,4.99098095 Z" id="Oval-8-Copy-2" stroke-width="0.5" fill="#FFFFFF" transform="translate(5.500000, 4.500000) rotate(-30.000000) translate(-5.500000, -4.500000) "></path>
                    <path d="M4.45999138,6.99098095 C4.6769715,7.07678473 5.00481902,6.52832225 4.93060755,6.2804308 C4.89914522,6.17533598 4.61704497,6 4.44798342,6 C4.28265695,6 4,6.22533747 4,6.33673203 C4,6.56136389 4.24301125,6.90517716 4.45999138,6.99098095 Z" id="Oval-8-Copy-5" stroke-width="0.5" fill="#FFFFFF" transform="translate(4.500000, 6.500000) rotate(-80.000000) translate(-4.500000, -6.500000) "></path>
                    <path d="M8.48866393,3.99098095 C8.71916903,4.07678473 9.06745221,3.52832225 8.98861493,3.2804308 C8.95519147,3.17533598 8.65550712,3 8.47590749,3 C8.30027575,3 8,3.22533747 8,3.33673203 C8,3.56136389 8.25815882,3.90517716 8.48866393,3.99098095 Z" id="Oval-8-Copy-3" stroke-width="0.5" fill="#FFFFFF"></path>
                    <path d="M10.4886639,4.99098095 C10.719169,5.07678473 11.0674522,4.52832225 10.9886149,4.2804308 C10.9551915,4.17533598 10.6555071,4 10.4759075,4 C10.3002758,4 10,4.22533747 10,4.33673203 C10,4.56136389 10.2581588,4.90517716 10.4886639,4.99098095 Z" id="Oval-8-Copy-4" stroke-width="0.5" fill="#FFFFFF" transform="translate(10.500000, 4.500000) rotate(30.000000) translate(-10.500000, -4.500000) "></path>
                    <path d="M12.4886639,6.99098095 C12.719169,7.07678473 13.0674522,6.52832225 12.9886149,6.2804308 C12.9551915,6.17533598 12.6555071,6 12.4759075,6 C12.3002758,6 12,6.22533747 12,6.33673203 C12,6.56136389 12.2581588,6.90517716 12.4886639,6.99098095 Z" id="Oval-8-Copy-6" stroke-width="0.5" fill="#FFFFFF" transform="translate(12.500000, 6.500000) rotate(78.000000) translate(-12.500000, -6.500000) "></path>
                </g>
                <path d="M1.04255931,26 C1.69154808,29.8075608 9.68271126,33 19.5,33 C29.3172887,33 37.3084519,29.8075608 37.9574407,26 C34.2186217,26 34.1036615,26 31.5028076,26 C19.5623626,26 19.4472802,26 1.04255931,26 Z" id="Oval-7" stroke="#FFFFFF"></path>
                <path d="M6.98775992,19.2433915 C5.09568399,19.5281024 3.61275992,21.4061464 3.61275992,23.7060324 C3.61275992,26.0667188 4.8270939,27.7564553 6.6339751,28.0088548 L6.98775992,19.6130148 L6.98775992,19.2433915 Z" id="Oval-4" stroke="#FFFFFF" transform="translate(5.300260, 23.623814) rotate(-56.000000) translate(-5.300260, -23.623814) "></path>
                <g id="leaf" transform="translate(24.000000, 15.000000)" stroke="#FFFFFF">
                    <path d="M2.10320742,8.4195175 C3.60211063,9.11890578 4.86464707,9.70759789 5.89080652,10.1855891 C5.81256109,10.1491419 5.83174957,10.1489363 5.80808027,10.1487027 C5.85905423,10.149245 5.93309823,10.1481011 6.02802317,10.1453089 C6.18992479,10.1405466 6.36216679,10.1331676 6.72597329,10.1162124 C6.7333585,10.1158682 6.7333585,10.1158682 6.74074484,10.1155239 C7.21327071,10.0934958 7.39333358,10.0859421 7.56867764,10.0824021 C7.67945149,10.0801658 7.94331143,9.98918903 8.30386045,9.82267305 C8.37534824,9.78965713 8.45066859,9.75381299 8.53330765,9.7136117 C8.63436719,9.66444945 9.00117117,9.48167775 9.07861089,9.44413677 C9.29892021,9.33733594 9.42498227,9.28376219 9.5434931,9.25867286 C9.79979836,9.20441177 9.98891726,9.225848 10.4627371,9.31730035 C10.4786455,9.32037044 10.4786455,9.32037044 10.4944017,9.32340438 C10.8000597,9.38220233 10.9445811,9.39543315 11.0123133,9.37689968 C11.1855092,9.32950834 11.3271556,9.20702409 11.6301786,8.85517239 C11.6458634,8.83695571 11.6458634,8.83695571 11.661746,8.81851445 C11.9743758,8.45566294 12.1487886,8.28711786 12.4195902,8.14171207 C12.5463055,8.07367283 13.0577362,7.80176273 13.1842638,7.73372807 C13.4644649,7.58306225 13.677689,7.46438676 13.8695691,7.35096414 C14.7367121,6.83838554 15.1007707,6.45530462 15.1007707,6.09350211 C15.1007707,5.88782492 14.8440796,5.63524114 14.1940592,5.27917636 C13.9500222,5.14549904 12.9625858,4.65296817 12.8173177,4.57732603 C12.5513067,4.43881219 12.3964556,4.28100144 12.1238942,3.9368143 C12.1141655,3.9245264 12.1141655,3.9245264 12.1045646,3.9123996 C11.8676324,3.6131984 11.7628002,3.52033059 11.6151582,3.48477294 C11.5637724,3.47239733 11.4173026,3.50998724 11.0709356,3.64262328 C11.0667101,3.64424135 11.0667101,3.64424135 11.0624735,3.64586353 C10.5293577,3.84998228 10.2952555,3.910913 9.97152879,3.84760562 C9.67002589,3.78864428 9.44638829,3.69388321 9.01497877,3.47389755 C8.87239742,3.40119203 8.83356701,3.3816201 8.76883828,3.35046141 C8.5334729,3.23716278 8.37189958,3.18361687 8.2307598,3.17449182 C8.20426339,3.17277876 8.14771381,3.18749043 8.05891468,3.22901207 C7.99570028,3.25857052 7.9330941,3.29280195 7.8139971,3.36159254 C7.38341614,3.61029669 7.22303043,3.68284273 6.93508064,3.68284273 C6.41982566,3.68284273 6.05272969,3.56955659 5.62200921,3.33675721 C5.65695374,3.35564431 5.40391967,3.21630875 5.34960098,3.18924593 C5.15772712,3.09364994 5.05298411,3.08349877 4.83459385,3.16520822 C3.5149983,3.65892728 2.44463741,5.23262943 2.44463741,6.39402443 C2.44463741,6.7411721 2.33137718,7.40353543 2.10320742,8.4195175 Z" id="Oval-12" transform="translate(8.563254, 6.629889) rotate(-25.000000) translate(-8.563254, -6.629889) "></path>
                </g>
            </g>
            <g id="share--" transform="translate(14.500000, 5.000000)" stroke="#FFFFFF">
                <circle id="Oval-11" cx="8" cy="2" r="1.5"></circle>
                <circle id="Oval-11-Copy" cx="8" cy="8" r="1.5"></circle>
                <circle id="Oval-11-Copy-2" cx="2" cy="5" r="1.5"></circle>
                <path d="M4,4 L6.5,2.5" id="Line-3" stroke-linecap="square"></path>
                <path d="M3.5,5.5 L6.5,7.5" id="Line-2" stroke-linecap="square"></path>
            </g>
        </g>
    </g>
</svg>