<?xml version="1.0" encoding="UTF-8" standalone="no"?>
<svg width="16px" height="16px" viewBox="0 0 16 16" version="1.1" xmlns="http://www.w3.org/2000/svg" xmlns:xlink="http://www.w3.org/1999/xlink">
    <defs></defs>
    <g id="removeIcon" stroke="none" stroke-width="1" fill="none" fill-rule="evenodd">
        <g id="remove" fill-rule="nonzero" fill="#FFFFFF">
            <path d="M16,12.8754209 C16,13.2345679 15.8742985,13.5398429 15.6228956,13.7912458 L13.7912458,15.6228956 C13.5398429,15.8742985 13.2345679,16 12.8754209,16 C12.5162738,16 12.2109989,15.8742985 11.959596,15.6228956 L8,11.6632997 L4.04040404,15.6228956 C3.78900112,15.8742985 3.48372615,16 3.12457912,16 C2.7654321,16 2.46015713,15.8742985 2.20875421,15.6228956 L0.377104377,13.7912458 C0.125701459,13.5398429 0,13.2345679 0,12.8754209 C0,12.5162738 0.125701459,12.2109989 0.377104377,11.959596 L4.33670034,8 L0.377104377,4.04040404 C0.125701459,3.78900112 0,3.48372615 0,3.12457912 C0,2.7654321 0.125701459,2.46015713 0.377104377,2.20875421 L2.20875421,0.377104377 C2.46015713,0.125701459 2.7654321,0 3.12457912,0 C3.48372615,0 3.78900112,0.125701459 4.04040404,0.377104377 L8,4.33670034 L11.959596,0.377104377 C12.2109989,0.125701459 12.5162738,0 12.8754209,0 C13.2345679,0 13.5398429,0.125701459 13.7912458,0.377104377 L15.6228956,2.20875421 C15.8742985,2.46015713 16,2.7654321 16,3.12457912 C16,3.48372615 15.8742985,3.78900112 15.6228956,4.04040404 L11.6632997,8 L15.6228956,11.959596 C15.8742985,12.2109989 16,12.5162738 16,12.8754209 Z" id="Shape"></path>
        </g>
    </g>
</svg>